<svg width="130" height="22" viewBox="0 0 130 22" fill="none" xmlns="http://www.w3.org/2000/svg">
<path d="M13.0469 0.732422C17.6042 0.732422 19.8828 3.01107 19.8828 7.56836H15.7812C15.7812 5.74544 14.8698 4.83398 13.0469 4.83398H7.57812C5.75521 4.83398 4.84375 5.74544 4.84375 7.56836V13.0371C4.84375 14.86 5.75521 15.7715 7.57812 15.7715H13.0469C14.8698 15.7715 15.7812 14.86 15.7812 13.0371H19.8828C19.8828 17.5944 17.6042 19.873 13.0469 19.873H7.57812C3.02083 19.873 0.742188 17.5944 0.742188 13.0371V7.56836C0.742188 3.01107 3.02083 0.732422 7.57812 0.732422H13.0469Z" fill="white"/>
<path d="M26.7188 7.56836V13.0371C26.7188 14.86 27.6302 15.7715 29.4531 15.7715H34.9219C36.7448 15.7715 37.6562 14.86 37.6562 13.0371V7.56836C37.6562 5.74544 36.7448 4.83398 34.9219 4.83398H29.4531C27.6302 4.83398 26.7188 5.74544 26.7188 7.56836ZM22.6172 13.0371V7.56836C22.6172 3.01107 24.8958 0.732422 29.4531 0.732422H34.9219C39.4792 0.732422 41.7578 3.01107 41.7578 7.56836V13.0371C41.7578 17.5944 39.4792 19.873 34.9219 19.873H29.4531C24.8958 19.873 22.6172 17.5944 22.6172 13.0371Z" fill="white"/>
<path d="M63.6328 7.56836V13.0371C63.6328 17.5944 61.3542 19.873 56.7969 19.873H44.4922V0.732422H56.7969C61.3542 0.732422 63.6328 3.01107 63.6328 7.56836ZM59.5312 13.0371V7.56836C59.5312 5.74544 58.6198 4.83398 56.7969 4.83398H48.5938V15.7715H56.7969C58.6198 15.7715 59.5312 14.86 59.5312 13.0371Z" fill="white"/>
<path d="M85.5078 0.732422V4.83398H70.4688V8.25195H84.1406V12.3535H70.4688V15.7715H85.5078V19.873H66.3672V0.732422H85.5078Z" fill="white"/>
<path d="M97.8125 13.0645L104.936 0.732422H109.666L97.8125 21.2676L85.959 0.732422H90.6895L97.8125 13.0645Z" fill="white"/>
<path d="M123.789 0.732422C127.435 0.732422 129.258 2.55534 129.258 6.20117H125.156C125.156 5.28971 124.701 4.83398 123.789 4.83398H115.586C114.674 4.83398 114.219 5.28971 114.219 6.20117V6.88477C114.219 7.79622 114.674 8.25195 115.586 8.25195H123.789C127.435 8.25195 129.258 10.0749 129.258 13.7207V14.4043C129.258 18.0501 127.435 19.873 123.789 19.873H115.586C111.94 19.873 110.117 18.0501 110.117 14.4043H114.219C114.219 15.3158 114.674 15.7715 115.586 15.7715H123.789C124.701 15.7715 125.156 15.3158 125.156 14.4043V13.7207C125.156 12.8092 124.701 12.3535 123.789 12.3535H115.586C111.94 12.3535 110.117 10.5306 110.117 6.88477V6.20117C110.117 2.55534 111.94 0.732422 115.586 0.732422H123.789Z" fill="white"/>
</svg>
