<svg width="16" height="16" viewBox="0 0 16 16" fill="none" xmlns="http://www.w3.org/2000/svg">
<g clip-path="url(#clip0_709_4457)">
<path fill-rule="evenodd" clip-rule="evenodd" d="M7.99984 1.99984C4.68613 1.99984 1.99984 4.68613 1.99984 7.99984C1.99984 11.3135 4.68613 13.9998 7.99984 13.9998C11.3135 13.9998 13.9998 11.3135 13.9998 7.99984C13.9998 4.68613 11.3135 1.99984 7.99984 1.99984ZM0.666504 7.99984C0.666504 3.94975 3.94975 0.666504 7.99984 0.666504C12.0499 0.666504 15.3332 3.94975 15.3332 7.99984C15.3332 12.0499 12.0499 15.3332 7.99984 15.3332C3.94975 15.3332 0.666504 12.0499 0.666504 7.99984Z" fill="#FD3D51"/>
<path fill-rule="evenodd" clip-rule="evenodd" d="M8.00016 3.3335C8.36835 3.3335 8.66683 3.63197 8.66683 4.00016V8.66683C8.66683 9.03502 8.36835 9.3335 8.00016 9.3335C7.63197 9.3335 7.3335 9.03502 7.3335 8.66683V4.00016C7.3335 3.63197 7.63197 3.3335 8.00016 3.3335Z" fill="#FD3D51"/>
<path d="M8.66683 11.3332C8.66683 11.7014 8.36835 11.9998 8.00016 11.9998C7.63197 11.9998 7.3335 11.7014 7.3335 11.3332C7.3335 10.965 7.63197 10.6665 8.00016 10.6665C8.36835 10.6665 8.66683 10.965 8.66683 11.3332Z" fill="#FD3D51"/>
</g>
<defs>
<clipPath id="clip0_709_4457">
<rect width="16" height="16" fill="white"/>
</clipPath>
</defs>
</svg>
