<svg width="16" height="16" viewBox="0 0 16 16" fill="none" xmlns="http://www.w3.org/2000/svg">
<g clip-path="url(#clip0_709_4473)">
<path fill-rule="evenodd" clip-rule="evenodd" d="M7.99984 1.99984C4.68613 1.99984 1.99984 4.68613 1.99984 7.99984C1.99984 11.3135 4.68613 13.9998 7.99984 13.9998C11.3135 13.9998 13.9998 11.3135 13.9998 7.99984C13.9998 4.68613 11.3135 1.99984 7.99984 1.99984ZM0.666504 7.99984C0.666504 3.94975 3.94975 0.666504 7.99984 0.666504C12.0499 0.666504 15.3332 3.94975 15.3332 7.99984C15.3332 12.0499 12.0499 15.3332 7.99984 15.3332C3.94975 15.3332 0.666504 12.0499 0.666504 7.99984Z" fill="#54C60E"/>
<path fill-rule="evenodd" clip-rule="evenodd" d="M11.4716 5.52876C11.7319 5.78911 11.7319 6.21122 11.4716 6.47157L7.47157 10.4716C7.21122 10.7319 6.78911 10.7319 6.52876 10.4716L4.52876 8.47157C4.26841 8.21122 4.26841 7.78911 4.52876 7.52876C4.78911 7.26841 5.21122 7.26841 5.47157 7.52876L7.00016 9.05735L10.5288 5.52876C10.7891 5.26841 11.2112 5.26841 11.4716 5.52876Z" fill="#54C60E"/>
</g>
<defs>
<clipPath id="clip0_709_4473">
<rect width="16" height="16" fill="white"/>
</clipPath>
</defs>
</svg>
