<svg width="26" height="24" viewBox="0 0 26 24" fill="none" xmlns="http://www.w3.org/2000/svg">
<path d="M11.0892 1.40951C11.6699 -0.469841 14.3301 -0.469836 14.9108 1.40952L16.3415 6.03929C16.6005 6.87731 17.3753 7.44881 18.2524 7.44881H23.0874C25.0005 7.44881 25.8218 9.87676 24.3015 11.0381L20.2201 14.1561C19.554 14.6649 19.2759 15.5351 19.5233 16.3359L21.0411 21.2475C21.616 23.108 19.4635 24.6094 17.9162 23.4273L14.2141 20.5992C13.4973 20.0516 12.5027 20.0516 11.7859 20.5992L8.08384 23.4273C6.53647 24.6094 4.38397 23.108 4.95887 21.2475L6.47666 16.3359C6.72412 15.5351 6.44599 14.6649 5.77994 14.1561L1.69847 11.0381C0.178244 9.87677 0.999524 7.44881 2.91259 7.44881H7.74763C8.62475 7.44881 9.39952 6.87731 9.65848 6.03929L11.0892 1.40951Z" fill="current"/>
</svg>
