<svg width="26" height="26" viewBox="0 0 26 26" fill="none" xmlns="http://www.w3.org/2000/svg">
<path d="M4.25 0.75C2.17679 0.75 0.5 2.42679 0.5 4.5C0.5 6.57321 2.17679 8.25 4.25 8.25C6.32321 8.25 8 6.57321 8 4.5C8 2.42679 6.32321 0.75 4.25 0.75Z" fill="#1F2231"/>
<path d="M13 0.75C10.9268 0.75 9.25 2.42679 9.25 4.5C9.25 6.57321 10.9268 8.25 13 8.25C15.0732 8.25 16.75 6.57321 16.75 4.5C16.75 2.42679 15.0732 0.75 13 0.75Z" fill="#1F2231"/>
<path d="M21.75 0.75C19.6768 0.75 18 2.42679 18 4.5C18 6.57321 19.6768 8.25 21.75 8.25C23.8232 8.25 25.5 6.57321 25.5 4.5C25.5 2.42679 23.8232 0.75 21.75 0.75Z" fill="#1F2231"/>
<path d="M13 17C15.0711 17 16.75 15.3211 16.75 13.25C16.75 11.1789 15.0711 9.5 13 9.5C10.9289 9.5 9.25 11.1789 9.25 13.25C9.25 15.3211 10.9289 17 13 17Z" fill="#1F2231"/>
<path d="M13 25.75C15.0711 25.75 16.75 24.0711 16.75 22C16.75 19.9289 15.0711 18.25 13 18.25C10.9289 18.25 9.25 19.9289 9.25 22C9.25 24.0711 10.9289 25.75 13 25.75Z" fill="#1F2231"/>
</svg>
